<?xml version="1.0" standalone="no"?>
<!DOCTYPE svg PUBLIC "-//W3C//DTD SVG 20010904//EN"
 "http://www.w3.org/TR/2001/REC-SVG-20010904/DTD/svg10.dtd">
<svg version="1.0" xmlns="http://www.w3.org/2000/svg"
 width="1792.000000pt" height="1024.000000pt" viewBox="0 0 1792.000000 1024.000000"
 preserveAspectRatio="xMidYMid meet">

<g transform="translate(0.000000,1024.000000) scale(0.100000,-0.100000)"
fill="#000000" stroke="none">
<path d="M8992 9230 c-174 -15 -227 -21 -252 -25 -14 -2 -45 -7 -70 -10 -83
-11 -164 -26 -335 -61 -942 -197 -1807 -700 -2479 -1440 -426 -469 -730 -983
-922 -1559 -82 -247 -117 -383 -153 -607 -53 -320 -60 -416 -57 -723 5 -377
41 -668 121 -970 160 -606 454 -1169 859 -1643 120 -139 411 -439 476 -488
l49 -37 1156 -1 c636 -1 1158 0 1159 2 2 1 -6 33 -16 70 -21 71 -30 301 -16
392 4 25 11 77 17 115 6 39 22 133 36 210 14 77 35 192 46 255 11 63 26 141
34 173 8 32 15 60 15 61 0 2 -48 6 -107 9 -130 7 -206 26 -334 82 -230 102
-403 263 -517 483 -24 46 -51 86 -60 89 -138 47 -223 92 -358 189 l-76 54 -46
-16 c-26 -9 -81 -19 -122 -23 -57 -5 -84 -13 -113 -34 -73 -50 -143 -70 -247
-71 -103 -1 -157 13 -265 67 -259 129 -570 530 -731 942 -64 163 -91 258 -109
380 -57 389 74 654 369 744 176 54 389 4 555 -131 34 -27 63 -48 65 -46 1 1 8
16 16 32 21 41 137 145 211 189 65 38 201 87 243 87 23 0 23 1 19 88 -4 72 -1
98 16 150 63 185 193 313 386 377 151 51 301 43 441 -24 l81 -39 7 82 c3 44 9
93 12 108 5 23 2 29 -18 37 -94 35 -205 146 -257 254 -47 96 -61 166 -55 261
13 208 119 380 289 468 86 44 162 61 263 57 l77 -3 73 74 c63 64 72 78 72 110
0 55 36 187 70 256 65 134 185 261 329 347 104 64 283 135 396 158 157 33 362
23 505 -23 78 -25 197 -82 226 -109 20 -18 23 -19 60 -3 55 23 197 44 252 38
131 -16 259 -81 348 -177 139 -151 184 -347 123 -542 -10 -33 -19 -63 -19 -66
0 -3 26 -24 58 -47 66 -46 163 -143 205 -204 60 -88 117 -233 117 -300 0 -31
5 -40 35 -58 19 -12 53 -42 76 -68 36 -42 42 -45 51 -29 45 81 162 150 256
151 43 1 71 -6 111 -26 l53 -26 53 33 c154 99 385 144 561 110 149 -29 298
-125 352 -229 38 -74 38 -169 -1 -248 -29 -60 -103 -134 -144 -144 -13 -4 -23
-7 -23 -9 0 -2 16 -36 35 -76 58 -124 69 -183 69 -364 -1 -139 -4 -173 -27
-258 -103 -387 -393 -678 -818 -822 l-104 -35 3 -51 c2 -29 7 -62 12 -73 6
-15 74 -51 250 -130 199 -90 244 -114 256 -137 16 -33 18 -151 4 -250 -19
-135 -115 -364 -199 -480 -173 -238 -322 -370 -548 -483 -131 -66 -148 -67
-214 -15 -30 24 -67 58 -84 76 l-30 33 -78 -6 -78 -7 -47 -81 c-51 -90 -186
-233 -238 -255 l-32 -13 -4 -121 c-4 -100 -10 -136 -32 -200 -53 -151 -157
-305 -266 -393 -81 -65 -196 -133 -280 -164 l-60 -22 0 -75 c0 -85 -14 -125
-70 -199 -47 -63 -127 -117 -207 -140 l-60 -18 -11 -112 c-7 -61 -19 -131 -27
-154 -8 -23 -15 -48 -15 -54 0 -8 331 -12 1241 -14 l1241 -2 66 57 c209 182
477 465 635 668 87 112 257 370 327 494 205 368 381 867 451 1276 11 66 22
132 24 146 50 296 60 854 20 1134 -75 521 -195 914 -410 1346 -198 397 -438
734 -763 1072 -405 420 -773 693 -1267 939 -454 227 -889 359 -1385 418 -195
24 -619 35 -778 20z m2491 -1530 c21 -43 62 -73 132 -96 16 -5 11 -9 -25 -20
-63 -19 -109 -69 -125 -136 -10 -41 -14 -48 -20 -33 -34 98 -89 159 -152 171
-40 7 -34 16 20 34 61 19 103 63 118 121 12 46 14 49 22 28 5 -13 18 -44 30
-69z m-4062 -238 c67 -43 83 -66 81 -114 -2 -43 -13 -62 -43 -79 -17 -8 -18
-6 -13 20 9 44 -2 76 -31 89 -31 14 -29 18 -45 -103 -20 -158 -49 -278 -73
-303 -50 -53 -126 -68 -164 -32 -32 29 -37 56 -16 92 28 48 65 70 119 72 56 1
50 -13 89 204 30 167 33 182 44 182 4 0 27 -13 52 -28z m-782 -948 c26 -33 27
-64 1 -97 -26 -33 -63 -41 -99 -23 -31 17 -41 34 -41 74 0 67 97 99 139 46z
m264 -74 c33 -26 41 -63 22 -100 -17 -33 -51 -46 -92 -35 -59 14 -71 79 -24
126 35 34 59 36 94 9z m5846 -1082 c-67 -164 -163 -286 -274 -350 -70 -40
-149 -72 -165 -66 -6 2 24 33 67 70 99 84 332 322 368 376 15 23 29 42 31 42
1 0 -11 -33 -27 -72z m-473 -150 c4 -7 3 -8 -4 -4 -7 4 -12 3 -12 -2 0 -8 -43
-32 -58 -32 -5 0 57 47 65 50 1 0 5 -5 9 -12z m-5429 -1680 c42 -39 22 -114
-35 -132 -48 -16 -110 41 -98 89 15 61 89 85 133 43z m591 -219 c45 -65 51
-92 26 -127 -35 -51 -108 -13 -154 82 -28 57 -34 80 -38 163 l-5 98 64 -78
c35 -43 83 -105 107 -138z m3962 105 c-105 -106 -246 -197 -328 -210 -36 -6
-42 -3 -57 20 -16 24 -16 28 2 63 24 50 58 68 201 103 66 16 144 41 174 54 29
13 55 25 58 25 2 1 -20 -24 -50 -55z m-3605 -439 c81 -108 291 -318 394 -393
46 -34 87 -62 92 -62 5 0 9 -4 9 -9 0 -16 -140 28 -210 65 -147 78 -236 171
-306 319 -47 100 -87 231 -56 185 9 -14 44 -61 77 -105z m3415 30 c-88 -108
-187 -183 -290 -221 -67 -24 -150 -43 -190 -44 -30 0 -8 14 145 98 170 92 349
205 376 238 6 8 14 12 17 10 2 -3 -24 -39 -58 -81z m-3957 -44 c57 -86 175
-227 291 -348 49 -52 86 -96 83 -99 -12 -12 -134 63 -194 120 -77 72 -145 171
-195 288 -56 131 -53 141 15 39z m3658 -438 c-29 -55 -190 -197 -264 -234 -82
-42 -291 -90 -329 -76 -7 2 19 19 57 37 232 108 418 203 475 243 76 53 73 52
61 30z m-2991 -255 c84 -61 233 -159 281 -183 44 -23 30 -29 -38 -15 -121 25
-238 105 -326 223 -71 96 -78 109 -31 66 21 -20 73 -61 114 -91z"/>
<path d="M9310 8614 c-435 -78 -738 -354 -740 -674 l-1 -65 -51 -40 c-28 -22
-78 -74 -111 -115 -32 -41 -62 -78 -66 -82 -3 -4 -28 -1 -55 7 -175 53 -373
-39 -452 -208 -111 -241 3 -512 252 -596 l71 -24 -26 -81 c-22 -73 -25 -97
-25 -236 1 -122 5 -171 21 -232 11 -43 17 -78 12 -78 -4 0 -32 30 -62 68 -30
37 -73 84 -97 106 -50 45 -165 101 -241 117 -153 33 -371 -41 -469 -158 -74
-90 -113 -223 -89 -307 18 -61 46 -83 124 -96 33 -5 61 -13 62 -17 20 -58 80
-102 148 -110 47 -6 60 -12 48 -24 -7 -7 -44 1 -116 25 -238 80 -401 72 -592
-28 -68 -35 -162 -126 -195 -189 -14 -26 -38 -52 -62 -66 l-39 -22 -57 52
c-196 180 -408 235 -584 151 -289 -139 -303 -555 -38 -1097 171 -349 471 -683
664 -740 67 -20 199 -20 255 -1 24 9 71 33 105 53 53 33 69 38 129 39 54 1 81
8 129 32 l61 30 91 -72 c50 -40 118 -89 151 -109 72 -42 278 -137 300 -137 8
0 15 -8 15 -17 0 -10 20 -59 45 -109 100 -200 333 -391 550 -449 62 -17 234
-36 248 -28 4 3 -24 20 -63 39 -46 22 -92 54 -129 91 -50 51 -111 132 -111
148 0 4 19 -6 43 -20 90 -56 293 -135 347 -135 20 0 49 -20 106 -73 l78 -74
-36 -44 c-58 -72 -99 -168 -118 -280 -57 -336 -86 -531 -101 -682 -17 -166 0
-282 56 -394 86 -168 267 -267 434 -236 228 43 364 234 380 536 l6 120 75 29
c131 50 168 70 205 108 31 32 63 104 60 135 -5 50 -20 86 -45 112 -17 17 -27
33 -23 36 4 3 48 17 96 31 107 33 263 111 338 170 112 88 202 217 246 351 22
68 26 99 27 212 l1 132 60 36 c74 44 147 114 190 180 32 49 80 165 69 165 -3
0 -29 -20 -57 -45 -44 -39 -224 -141 -233 -133 -1 2 7 37 19 77 19 65 29 81
75 125 30 28 72 79 95 113 l41 62 75 -66 c42 -36 86 -77 98 -90 22 -23 23 -23
70 -7 26 9 58 22 71 31 22 14 27 11 105 -59 138 -123 114 -114 191 -73 207
110 367 252 509 453 103 145 182 377 175 511 l-3 65 -170 76 c-362 162 -337
144 -349 250 -4 30 -10 80 -14 110 -15 110 -26 98 151 162 240 87 400 181 529
314 128 131 178 213 232 376 79 235 63 470 -44 677 -38 73 -38 129 0 137 141
30 219 155 159 253 -78 129 -302 192 -520 147 -92 -19 -215 -80 -296 -146 -34
-27 -64 -47 -66 -42 -2 4 -7 19 -11 34 -8 34 -70 78 -111 78 -90 0 -244 -155
-245 -247 0 -13 -3 -23 -7 -23 -5 0 -28 30 -53 67 -45 65 -159 179 -210 210
-24 13 -27 24 -37 100 -21 171 -130 324 -340 478 -46 33 -83 65 -83 70 0 6 11
27 24 46 14 20 35 67 47 104 60 186 -36 392 -227 486 -59 29 -81 34 -156 37
-94 4 -159 -11 -234 -54 l-41 -23 -24 25 c-47 50 -142 104 -237 135 -87 29
-111 32 -237 35 -77 1 -151 0 -165 -2z m338 -124 c140 -39 207 -86 250 -173
24 -49 66 -187 58 -194 -2 -2 -20 3 -40 11 -28 12 -38 23 -43 46 -3 18 -9 27
-13 21 -5 -9 -34 -7 -106 5 -95 15 -286 15 -369 -1 -28 -6 -31 -3 -48 38 -25
61 -64 96 -130 113 -50 13 -64 13 -123 -1 -198 -46 -344 -184 -344 -325 0 -39
-4 -51 -20 -60 -25 -14 -26 2 -5 85 46 175 202 317 453 411 149 57 335 66 480
24z m687 -124 c28 -13 64 -38 80 -56 l30 -32 -65 33 c-56 29 -75 34 -140 34
-65 0 -85 -4 -138 -31 -52 -26 -62 -28 -62 -14 0 24 30 48 86 70 69 27 147 25
209 -4z m-655 -290 c223 -35 455 -146 661 -317 59 -50 70 -50 26 -1 -28 30
-18 28 52 -13 87 -51 196 -135 269 -207 63 -62 129 -154 119 -164 -3 -3 -40
12 -82 34 -62 32 -73 36 -60 18 110 -150 136 -221 143 -391 5 -145 -6 -207
-54 -311 l-28 -59 -6 132 c-7 174 -21 189 -34 37 -9 -108 -122 -351 -220 -474
l-51 -64 -7 87 c-4 48 -12 102 -17 120 l-9 32 -1 -31 c-3 -101 -104 -314 -194
-411 -33 -35 -61 -62 -63 -60 -2 2 7 37 21 77 14 40 25 75 25 78 0 2 -18 -22
-39 -54 -49 -73 -160 -181 -225 -219 -150 -87 -373 -94 -539 -16 l-58 28 28
-30 c15 -16 46 -42 67 -58 34 -25 36 -29 16 -29 -69 0 -233 58 -294 105 -63
48 -68 49 -45 10 12 -19 46 -57 76 -84 l55 -49 -39 5 c-108 13 -224 68 -310
146 -52 48 -54 49 -47 21 3 -16 15 -49 25 -73 11 -24 17 -46 15 -48 -2 -2 -37
17 -77 42 -80 52 -167 130 -210 189 -24 33 -29 35 -29 17 0 -12 9 -53 19 -91
l20 -70 -45 37 c-68 55 -112 110 -149 188 -54 111 -68 180 -63 318 l3 119 -32
-68 c-17 -38 -35 -85 -39 -104 l-8 -35 -7 30 c-23 102 -1 307 45 413 19 44 26
81 30 162 9 178 61 345 144 468 42 61 130 147 170 165 26 12 30 31 5 23 -10
-3 -39 -10 -64 -15 -26 -6 -59 -15 -74 -21 l-28 -11 28 38 c50 68 99 114 168
160 127 83 244 121 380 124 42 1 77 5 77 9 0 8 -106 103 -150 134 -25 18 -23
18 75 12 55 -3 129 -13 164 -22 49 -13 65 -14 71 -4 22 36 242 50 400 26z
m-1421 -548 c11 -7 21 -15 21 -19 0 -3 -35 -5 -77 -5 -66 0 -87 -4 -133 -28
-70 -35 -85 -49 -122 -111 -24 -41 -29 -45 -23 -20 24 113 152 211 261 201 28
-2 61 -10 73 -18z m3989 -403 c44 -6 135 -46 147 -65 8 -12 11 -13 -55 5 -88
24 -205 19 -302 -11 -103 -33 -161 -61 -265 -131 -99 -68 -127 -63 -56 9 63
65 165 132 246 163 68 25 172 44 217 39 14 -2 44 -6 68 -9z m-1198 -152 c109
-119 170 -249 170 -361 l0 -58 -72 -23 c-40 -13 -104 -44 -143 -70 -38 -25
-73 -47 -77 -49 -4 -2 10 25 32 60 22 35 43 70 46 78 3 8 14 31 25 50 53 94
61 120 54 179 l-7 56 -28 -75 c-64 -176 -141 -290 -310 -460 -111 -110 -236
-252 -358 -406 -22 -29 -22 -29 -16 -4 20 82 115 228 288 444 169 210 220 284
275 396 40 82 46 104 49 170 3 48 -1 90 -11 117 -14 40 -13 42 3 33 10 -5 46
-40 80 -77z m486 52 c4 -10 -10 -30 -40 -56 -54 -48 -76 -85 -76 -131 0 -25
-3 -30 -10 -18 -25 37 22 157 77 199 34 25 42 26 49 6z m-56 -455 c6 0 10 -7
10 -16 0 -12 -6 -15 -22 -10 -13 3 -39 6 -60 6 l-36 0 -4 53 -3 53 53 -43 c29
-24 57 -43 62 -43z m86 -182 c-9 -50 -16 -119 -16 -152 0 -66 21 -158 41 -182
6 -8 10 -17 7 -19 -3 -3 -23 21 -46 53 -39 56 -75 159 -71 206 0 11 1 24 0 28
-1 4 -31 -4 -68 -18 -38 -15 -108 -42 -158 -61 -49 -18 -108 -45 -129 -60
l-39 -25 24 33 c12 19 51 62 86 96 68 67 200 139 301 164 28 7 52 16 52 20 0
4 5 20 12 36 l12 28 4 -28 c2 -15 -4 -69 -12 -119z m-3761 -64 c70 -35 135
-92 194 -171 24 -32 57 -69 73 -82 49 -40 137 -70 203 -71 54 -1 62 -4 84 -31
13 -17 20 -33 16 -37 -4 -4 -49 -6 -101 -5 -118 3 -172 28 -253 116 -192 212
-247 246 -397 255 -67 3 -105 0 -148 -12 -32 -10 -60 -16 -61 -14 -7 7 64 49
116 68 81 30 197 24 274 -16z m3055 -104 c11 -11 20 -29 20 -39 0 -17 -4 -18
-28 -12 -19 6 -37 4 -53 -4 -28 -15 -39 -11 -39 15 0 20 44 60 66 60 8 0 23
-9 34 -20z m-12 -106 c12 -8 22 -25 22 -37 0 -21 -4 -22 -67 -21 -76 1 -87 11
-49 49 29 29 62 32 94 9z m-28 -114 c44 -44 34 -110 -13 -80 -12 7 -37 16 -56
19 -44 8 -49 24 -17 56 30 30 59 32 86 5z m-57 -118 c45 -47 30 -117 -16 -74
-12 11 -37 23 -54 27 -45 9 -51 24 -19 52 36 30 56 29 89 -5z m-68 -99 c26
-28 32 -66 15 -93 -7 -12 -13 -10 -33 12 -13 14 -38 29 -55 33 -25 5 -32 12
-32 31 0 17 6 24 20 24 11 0 20 5 20 10 0 20 40 9 65 -17z m-1701 -44 c25 -19
38 -47 16 -34 -6 4 -26 -5 -45 -19 -40 -31 -39 -31 -60 -10 -16 16 -13 46 7
72 15 18 52 15 82 -9z m-279 3 c-6 -5 -30 -14 -55 -21 -58 -16 -150 -68 -224
-125 -39 -31 -69 -46 -90 -47 -66 -2 -129 -8 -152 -13 -13 -4 -24 -4 -24 -1 0
6 224 119 293 147 105 43 280 84 252 60z m2250 -29 c-42 -100 -49 -141 -49
-283 -1 -139 1 -149 32 -239 39 -110 69 -172 127 -261 47 -72 129 -160 149
-160 7 0 23 -13 36 -30 29 -38 46 -39 26 -2 -17 31 -28 60 -31 82 -1 8 -6 23
-10 33 -6 13 -1 18 23 23 l30 6 -5 92 c-4 64 0 114 11 171 10 44 18 81 20 82
2 2 11 -36 21 -84 35 -176 92 -354 94 -295 1 12 3 22 5 22 2 0 70 -32 150 -70
104 -50 146 -76 146 -88 0 -26 -27 -123 -47 -166 -28 -64 -169 -201 -237 -232
-54 -25 -66 -26 -150 -21 -147 8 -261 67 -399 203 -52 51 -137 162 -137 179 0
4 17 -8 37 -25 67 -59 151 -91 256 -97 52 -3 116 -2 143 2 l49 7 -44 14 c-24
7 -47 17 -50 22 -3 5 -49 40 -101 79 -112 82 -182 155 -243 249 -66 103 -85
145 -108 241 -39 161 -11 376 60 461 16 20 56 45 106 67 92 40 100 41 90 18z
m-3602 -37 c337 -114 546 -350 710 -802 67 -185 116 -302 167 -404 56 -112
203 -326 312 -456 51 -62 113 -136 138 -165 l45 -54 -40 29 c-95 69 -254 243
-332 364 -89 137 -207 367 -283 547 -72 174 -170 379 -176 372 -2 -2 14 -60
36 -129 22 -69 40 -130 40 -134 -1 -5 -14 19 -30 54 -45 97 -158 280 -221 357
-117 144 -244 246 -383 310 -146 67 -278 76 -429 31 -103 -31 -103 -31 -86
-10 27 33 105 78 173 100 99 32 247 28 359 -10z m3262 -2 c19 -46 19 -78 0
-94 -12 -10 -20 -6 -47 21 -18 18 -44 38 -57 45 l-23 12 25 26 c17 17 37 26
56 26 26 0 33 -6 46 -36z m-1551 -25 c34 -27 34 -54 0 -55 -14 -1 -33 -9 -43
-18 -22 -20 -45 -20 -61 -1 -14 17 -7 44 21 73 25 28 49 28 83 1z m-2843 -80
c71 -38 146 -109 184 -173 31 -53 68 -159 100 -287 25 -102 48 -152 206 -449
126 -238 189 -397 196 -496 4 -53 2 -78 -7 -90 -12 -13 -101 -64 -114 -64 -3
0 -5 32 -5 70 0 100 -27 170 -195 508 -79 160 -178 373 -221 473 -106 251
-139 313 -198 376 -64 68 -159 117 -216 111 -23 -2 -41 -3 -41 -2 0 7 80 48
105 55 59 16 140 3 206 -32z m4303 -3 c21 -43 15 -81 -17 -100 -16 -9 -25 -4
-63 39 -24 27 -44 53 -44 57 0 22 43 49 73 46 26 -2 36 -10 51 -42z m-1354
-17 c14 -24 10 -30 -33 -44 -18 -6 -31 -16 -30 -22 4 -21 -39 -27 -53 -8 -15
20 -9 41 19 73 27 29 82 30 97 1z m1205 -39 c3 -11 3 -25 -1 -31 -4 -7 -3 -9
4 -5 16 10 27 -80 12 -99 -19 -23 -39 -18 -70 15 -51 54 -49 109 5 130 32 14
43 11 50 -10z m-1105 -35 c10 -12 4 -22 -33 -60 -48 -48 -67 -54 -87 -30 -14
17 2 71 28 93 22 17 77 15 92 -3z m-2092 -7 c38 -38 -14 -157 -112 -258 -80
-83 -102 -115 -117 -174 -8 -33 -14 -43 -20 -34 -5 7 -9 9 -9 5 0 -5 -7 -2
-15 7 -35 34 -3 104 97 213 86 93 108 133 108 195 0 25 3 48 7 51 11 11 48 8
61 -5z m3059 -24 c3 -9 -6 -27 -23 -45 -32 -34 -22 -40 13 -7 l23 22 -3 -25
c-2 -13 0 -34 6 -46 8 -18 6 -27 -8 -43 -36 -40 -89 -2 -101 72 -5 30 -2 41
19 62 29 29 65 34 74 10z m-3291 -20 c20 -19 24 -31 19 -52 -8 -33 -114 -174
-125 -167 -5 3 -12 0 -16 -6 -4 -8 -3 -9 4 -5 14 9 15 -3 2 -24 -8 -13 -11
-12 -24 5 -25 33 -19 94 14 154 17 30 29 55 28 57 -5 4 -110 -14 -155 -27 -37
-10 -40 -13 -28 -26 32 -31 13 -28 -21 3 -19 19 -32 39 -29 45 9 13 87 47 135
59 19 4 66 8 103 9 60 1 71 -2 93 -25z m2442 -31 c3 -17 -3 -24 -22 -29 -16
-4 -26 -13 -26 -24 0 -26 -27 -50 -48 -43 -38 14 -43 57 -11 97 18 23 28 27
63 24 34 -2 42 -7 44 -25z m-623 -8 c47 -7 186 -34 200 -38 6 -2 25 -7 42 -11
46 -11 181 -68 223 -94 19 -12 42 -22 50 -22 8 0 35 -14 60 -30 25 -16 61 -33
80 -36 19 -4 44 -13 55 -20 11 -8 25 -14 32 -14 40 0 259 -123 373 -210 190
-145 341 -311 653 -718 16 -20 40 -49 54 -64 l26 -27 -43 -57 c-65 -84 -166
-170 -250 -213 -123 -64 -128 -63 -82 6 44 64 106 183 96 183 -3 0 -41 -33
-83 -72 -141 -132 -296 -197 -506 -213 -202 -14 -460 44 -671 151 -260 131
-497 348 -643 586 -65 107 -103 190 -184 393 -99 249 -119 292 -184 403 -30
52 -53 95 -51 97 2 3 60 11 128 19 126 15 537 16 625 1z m1323 6 c23 -14 10
-56 -18 -59 -49 -7 -66 -47 -37 -86 12 -16 17 -17 36 -6 18 9 22 18 19 40 -2
16 -1 27 4 24 15 -9 9 -74 -7 -80 -31 -12 -66 6 -81 41 -20 50 -17 83 11 110
25 26 50 31 73 16z m-4063 -10 c3 -5 2 -12 -3 -15 -5 -3 -9 1 -9 9 0 17 3 19
12 6z m3483 -17 c22 -15 22 -17 6 -35 -9 -10 -23 -19 -31 -19 -7 0 -13 -11
-13 -24 0 -35 -25 -52 -55 -38 -30 14 -34 56 -10 102 12 24 22 30 48 30 18 0
43 -7 55 -16z m429 -15 c16 -16 -6 -55 -42 -73 l-30 -15 27 0 c14 -1 29 5 31
12 3 6 6 2 6 -11 1 -14 -3 -21 -10 -17 -6 4 -5 -2 3 -14 11 -17 10 -23 -3 -37
-15 -15 -18 -14 -38 7 -11 13 -21 19 -21 15 0 -5 -7 -3 -15 4 -18 15 -19 79
-1 102 23 31 74 46 93 27z m-299 -8 c20 -12 11 -44 -16 -56 -19 -8 -23 -16
-20 -43 6 -48 -23 -62 -57 -28 -32 32 -32 66 1 105 26 31 64 40 92 22z m-3778
-5 c0 -2 -7 -7 -16 -10 -8 -3 -12 -2 -9 4 6 10 25 14 25 6z m3925 -6 c14 -22
-7 -49 -43 -57 -20 -4 -40 -6 -44 -5 -12 3 -10 -36 2 -43 6 -3 10 0 10 8 0 8
8 18 17 21 19 8 37 -14 23 -28 -6 -6 -10 -20 -10 -33 0 -13 -6 -23 -13 -23
-24 0 -49 38 -54 83 -5 39 -2 46 22 65 29 23 79 29 90 12z m-3905 -14 c0 -2
-7 -7 -16 -10 -8 -3 -12 -2 -9 4 6 10 25 14 25 6z m238 -36 c2 -12 -34 -29
-148 -68 -145 -50 -151 -51 -148 -30 2 19 24 31 128 70 129 49 163 54 168 28z
m461 -15 c32 -37 42 -66 62 -181 8 -48 9 -80 2 -100 l-10 -29 -15 30 c-9 17
-19 53 -23 80 -6 41 -41 167 -62 222 -10 25 15 13 46 -22z m683 -43 c78 -87
142 -201 151 -271 5 -42 4 -41 -39 44 -48 96 -62 117 -74 110 -4 -3 -14 3 -21
12 -10 12 -10 14 -1 9 24 -15 11 11 -20 40 l-33 29 25 -30 c18 -22 13 -19 -17
9 -23 22 -41 42 -39 45 2 3 6 14 9 24 9 25 21 21 59 -21z m-1094 -50 c2 -12
-2 -22 -8 -22 -6 0 -77 -25 -157 -55 -80 -30 -150 -55 -154 -55 -14 0 -11 36
4 47 6 5 68 29 137 52 69 24 132 47 140 52 22 12 35 6 38 -19z m590 -59 c47
-39 87 -112 79 -144 -3 -10 -1 -17 4 -13 5 3 9 0 9 -6 0 -6 -12 -9 -27 -7 -20
3 -30 12 -38 36 -6 18 -25 51 -43 72 -30 36 -54 99 -37 99 4 0 28 -17 53 -37z
m377 -65 c72 -92 139 -229 166 -343 39 -160 25 -393 -27 -473 -13 -20 -74 -56
-82 -48 -1 2 4 18 12 37 39 93 39 275 -1 444 -18 81 -87 234 -143 321 -22 33
-40 64 -40 69 0 8 50 65 56 65 2 0 28 -32 59 -72z m3274 -20 c49 -194 182
-503 275 -643 34 -52 46 -79 46 -107 l0 -38 -33 37 c-131 149 -249 364 -317
578 -32 99 -32 101 -19 183 7 45 15 82 18 82 4 0 17 -42 30 -92z m-4197 21
c-4 -4 -18 -10 -32 -14 l-25 -7 25 23 c15 15 28 20 32 14 4 -5 4 -13 0 -16z
m635 -368 c5 -6 61 26 93 53 14 11 20 15 14 8 -8 -9 -3 -28 18 -70 18 -37 28
-73 28 -104 0 -82 -9 -84 -46 -11 -33 64 -84 133 -68 90 4 -11 -2 -24 -17 -38
-13 -11 -18 -18 -11 -14 13 7 17 -11 3 -19 -4 -3 -21 18 -36 47 -16 29 -50 87
-76 131 -42 69 -46 81 -37 107 10 29 11 28 70 -73 34 -57 63 -105 65 -107z
m-827 195 c0 -3 -4 -8 -10 -11 -5 -3 -10 -1 -10 4 0 6 5 11 10 11 6 0 10 -2
10 -4z m-40 -16 c-8 -5 -19 -10 -25 -10 -5 0 -3 5 5 10 8 5 20 10 25 10 6 0 3
-5 -5 -10z m-46 -25 c3 -8 1 -15 -3 -15 -5 0 -11 7 -15 15 -3 8 -1 15 3 15 5
0 11 -7 15 -15z m431 -106 c4 -11 5 -22 3 -24 -5 -5 -318 -115 -327 -115 -10
0 -24 31 -17 37 7 7 310 122 323 122 6 1 15 -8 18 -20z m-295 7 c0 -2 -9 -6
-20 -9 -11 -3 -18 -1 -14 4 5 9 34 13 34 5z m5825 -76 c17 -6 25 -17 25 -33 0
-35 -8 -38 -54 -20 -54 21 -59 27 -51 53 7 23 20 23 80 0z m-5472 -49 c4 -17
-13 -25 -127 -65 -72 -25 -146 -51 -164 -58 -28 -11 -34 -10 -42 2 -5 8 -10
18 -10 21 0 5 189 78 290 112 30 11 48 7 53 -12z m485 -40 c11 -7 11 -11 -2
-24 -9 -8 -16 -22 -16 -29 -1 -7 -7 -2 -14 11 -10 18 -11 28 -2 37 13 16 17
16 34 5z m-428 -82 c0 -4 -19 -14 -42 -22 -24 -8 -93 -33 -155 -56 -97 -35
-113 -38 -124 -25 -7 9 -8 18 -3 24 5 5 74 33 154 63 130 49 146 53 158 39 6
-9 12 -19 12 -23z m5371 15 c26 -13 30 -19 24 -42 -9 -39 -16 -43 -55 -32 -57
16 -62 22 -49 58 13 36 33 41 80 16z m-80 -151 c45 -27 35 -79 -14 -69 -15 3
-38 8 -52 11 l-24 5 20 35 c24 40 30 41 70 18z m-5121 -294 c0 -25 -80 -64
-111 -54 -32 10 -18 26 46 50 33 13 61 23 63 24 1 0 2 -8 2 -20z m2153 -227
c159 -117 444 -263 657 -338 87 -30 49 -30 -75 1 -194 49 -274 83 -405 171
-87 58 -256 204 -237 204 4 0 31 -17 60 -38z m163 -917 c-17 -69 -18 -117 -1
-185 17 -69 17 -72 -1 -85 -33 -23 -37 -21 -50 25 -22 72 -18 145 12 211 27
59 52 80 40 34z m210 -221 l45 -54 -33 7 c-18 3 -41 10 -50 15 -39 20 -93 151
-81 197 4 14 14 2 39 -46 19 -36 55 -90 80 -119z m-318 -128 c9 -24 10 -47 3
-82 -6 -27 -16 -89 -22 -139 -10 -72 -18 -95 -38 -115 -14 -14 -26 -20 -28
-13 -5 15 35 275 51 333 3 8 5 23 5 33 1 28 16 20 29 -17z m200 15 c11 -6 8
-14 -12 -34 -38 -38 -63 -104 -81 -210 -9 -50 -18 -105 -21 -122 -10 -44 -126
-155 -164 -155 -54 0 -38 33 38 79 24 14 48 40 60 65 22 43 23 49 43 191 12
94 37 148 81 179 25 18 37 19 56 7z m195 -100 c79 -60 154 -90 254 -103 48 -6
90 -13 91 -14 2 -1 1 -12 -3 -24 -4 -13 -33 -34 -78 -56 -45 -22 -62 -27 -47
-15 14 11 31 21 38 21 28 0 0 18 -39 24 -75 12 -147 44 -230 100 -45 31 -83
55 -84 54 -1 -2 -19 -32 -41 -67 l-39 -65 -3 39 c-4 49 22 119 54 144 31 24
52 18 127 -38z m489 -83 c28 -23 28 -55 1 -95 -33 -49 -45 -57 -126 -88 -95
-35 -104 -31 -24 12 83 44 120 88 120 143 0 43 4 47 29 28z m-531 -190 c65
-28 119 -55 119 -60 0 -4 7 -8 15 -8 8 0 15 -5 15 -11 0 -14 -19 -7 -164 55
-66 28 -121 57 -124 64 -6 20 15 14 139 -40z m-81 -48 c124 -50 240 -107 240
-120 0 -17 -21 -21 -55 -10 -19 6 -33 15 -30 20 3 5 1 11 -5 15 -5 3 -10 1
-10 -4 0 -16 -16 -13 -34 4 -8 9 -19 15 -23 15 -17 -2 -93 32 -93 42 0 5 -8 8
-17 6 -16 -4 -93 27 -93 36 0 8 12 36 16 36 2 0 49 -18 104 -40z m-50 -85 c16
-8 68 -29 115 -46 77 -28 108 -49 71 -49 -29 0 -226 89 -226 102 0 11 7 10 40
-7z m-92 -49 c15 -8 105 -47 200 -87 133 -56 172 -77 172 -91 0 -11 -7 -18
-17 -18 -10 1 -110 38 -223 83 -175 70 -205 85 -208 105 -3 18 1 22 23 22 15
0 39 -6 53 -14z m-135 -76 c7 -11 66 -39 138 -66 68 -25 153 -60 189 -76 36
-17 80 -36 98 -44 l32 -14 -21 -43 c-50 -99 -118 -141 -229 -142 -64 0 -82 4
-121 27 -106 63 -189 208 -189 333 0 40 79 60 103 25z"/>
<path d="M9740 7649 c-76 -15 -131 -50 -173 -109 -98 -144 -64 -362 80 -501
256 -249 585 -255 705 -12 29 60 33 77 33 148 0 136 -53 221 -202 322 -111 76
-212 128 -288 148 -65 16 -88 17 -155 4z m217 -329 c67 -40 87 -139 42 -204
-52 -77 -167 -102 -228 -50 -45 37 -41 57 7 32 25 -13 49 -18 74 -15 140 18
151 198 15 231 -15 4 -25 11 -22 16 10 17 78 11 112 -10z"/>
<path d="M8788 7201 c-95 -31 -170 -126 -198 -251 -16 -72 -22 -289 -9 -363
18 -111 88 -213 174 -256 64 -32 170 -27 231 11 90 57 134 136 144 263 4 49
14 123 21 162 30 165 -51 351 -182 419 -38 19 -141 28 -181 15z m101 -366
c-20 -71 57 -158 123 -142 40 10 86 54 93 89 10 44 27 14 18 -32 -9 -49 -31
-80 -70 -96 -108 -46 -222 26 -210 132 4 41 29 84 48 84 4 0 3 -16 -2 -35z"/>
<path d="M9610 6694 c-47 -19 -118 -48 -158 -64 -39 -17 -108 -48 -151 -69
-43 -22 -81 -37 -85 -34 -15 15 -4 -45 14 -74 28 -46 84 -71 205 -90 105 -17
105 -17 105 -45 0 -58 -41 -108 -120 -149 -58 -31 -191 -34 -258 -6 -42 17
-42 17 -33 -2 15 -28 80 -82 120 -99 51 -22 155 -21 216 2 58 22 127 74 151
115 17 28 20 29 114 33 88 3 104 7 173 41 96 47 157 113 186 199 21 63 26 127
12 163 -7 17 -9 15 -20 -16 -15 -45 -86 -144 -136 -188 -96 -84 -238 -116
-312 -71 -18 11 -33 27 -33 36 0 10 22 51 49 93 26 42 58 95 70 118 32 65 25
143 -13 143 -6 0 -49 -16 -96 -36z"/>
<path d="M10775 5961 c-3 -6 3 -15 14 -21 21 -11 37 2 26 20 -8 13 -32 13 -40
1z"/>
<path d="M10510 5560 c0 -5 5 -10 10 -10 6 0 10 5 10 10 0 6 -4 10 -10 10 -5
0 -10 -4 -10 -10z"/>
<path d="M10348 5459 c-10 -5 -18 -14 -18 -19 0 -11 29 -40 41 -40 5 0 0 9
-12 21 -20 20 -20 21 -2 34 21 17 16 19 -9 4z"/>
<path d="M9850 5248 c0 -9 5 -20 10 -23 13 -8 13 5 0 25 -8 13 -10 13 -10 -2z"/>
<path d="M9545 5270 c3 -5 17 -10 31 -10 13 0 24 5 24 10 0 6 -14 10 -31 10
-17 0 -28 -4 -24 -10z"/>
<path d="M8971 2434 c0 -11 3 -14 6 -6 3 7 2 16 -1 19 -3 4 -6 -2 -5 -13z"/>
<path d="M8470 1243 c-69 -1 -244 -8 -390 -15 -146 -6 -268 -11 -273 -10 -4 1
-96 -2 -205 -8 -108 -5 -246 -12 -307 -15 -238 -11 -574 -37 -665 -50 -14 -2
-63 -9 -110 -15 -183 -24 -294 -53 -315 -82 -13 -20 -13 -24 1 -40 39 -42 246
-80 589 -108 72 -6 150 -12 175 -15 169 -16 659 -46 1100 -67 164 -8 590 -13
1115 -13 946 0 1124 2 1335 15 80 5 231 14 335 20 105 6 271 18 370 26 99 8
214 17 255 20 76 6 477 51 517 58 11 3 43 7 70 11 113 15 193 49 193 80 0 27
-123 67 -259 86 -42 6 -87 12 -101 14 -14 2 -54 6 -90 10 -36 3 -105 10 -155
15 -86 9 -264 24 -425 35 -541 36 -2020 62 -2760 48z"/>
</g>
</svg>
